# xmcd CD database file
#
# Track frame offsets:
#	150
#	22986
#	58987
#	81555
#	101304
#	121465
#	148038
#	173969
#	204731
#	223595
#	247864
#	270959
#	317530
#
# Disc length: 4553 seconds
#
# Revision: 0
# Processed by: cddbd v1.5.2PL0 Copyright (c) Steve Scherf et al.
# Submitted via: CDex 1.51
#
DISCID=b711c70d
DTITLE=Kitaro - The Essential Kitaro
DYEAR=2006
DGENRE=New Age
TTITLE0=As the Wind Blows
TTITLE1=A Passage of Life
TTITLE2=Contortionists
TTITLE3=Estrella
TTITLE4=Whisper
TTITLE5=Itonami
TTITLE6=Wood Fairy
TTITLE7=Dance of Sarasvati
TTITLE8=The Scroll is Read
TTITLE9=Theme from Silk Road
TTITLE10=Nagare No Naka de
TTITLE11=Koi
TTITLE12=Shizuku
EXTD=YEAR: 2006
EXTT0=
EXTT1=
EXTT2=
EXTT3=
EXTT4=
EXTT5=
EXTT6=
EXTT7=
EXTT8=
EXTT9=
EXTT10=
EXTT11=
EXTT12=
PLAYORDER=
